<svg xmlns="http://www.w3.org/2000/svg" viewBox="0 0 198.26 189.72"><defs><style>.cls-1{fill:#00a498;}</style></defs><g id="Capa_2" data-name="Capa 2"><g id="objetos"><polygon class="cls-1" points="91.03 27.59 61.71 27.59 47.05 52.98 61.71 78.37 91.03 78.37 105.69 52.98 91.03 27.59"/><polygon class="cls-1" points="43.98 0 14.66 0 0 25.39 14.66 50.78 43.98 50.78 58.64 25.39 43.98 0"/><polygon class="cls-1" points="138.42 109.75 109.1 109.75 94.44 135.15 109.1 160.54 138.42 160.54 153.08 135.15 138.42 109.75"/><polygon class="cls-1" points="138 55.28 108.68 55.28 94.03 80.67 108.68 106.06 138 106.06 152.66 80.67 138 55.28"/><polygon class="cls-1" points="183.61 138.94 154.29 138.94 139.63 164.33 154.29 189.72 183.61 189.72 198.26 164.33 183.61 138.94"/></g></g></svg>