<svg xmlns="http://www.w3.org/2000/svg" viewBox="0 0 10.62 45.35"><defs><style>.cls-1{fill:#00a498;}</style></defs><g id="Capa_2" data-name="Capa 2"><g id="objetos"><path class="cls-1" d="M9.37,7a1.88,1.88,0,0,1,.12.59v.06A1.87,1.87,0,0,1,7.62,9.49,7.62,7.62,0,0,1,0,1.87,1.87,1.87,0,0,1,1.87,0h.06a1.88,1.88,0,0,1,.59.12l.71,3h0l-1.28.58h0A6,6,0,0,0,5.75,7.56h0l.58-1.29,3,.71"/><path class="cls-1" d="M6.1,22.47,2.37,20.14,6.1,18l3.73,2.19Zm4.51-2.26a.9.9,0,0,0-.42-.76L6.1,17.05,2,19.45a.91.91,0,0,0-.43.76v4.52a.91.91,0,0,0,.91.91H9.71a.91.91,0,0,0,.91-.91Z"/><path class="cls-1" d="M6.1,38.6a1.36,1.36,0,1,1,1.36-1.35A1.35,1.35,0,0,1,6.1,38.6Zm0-5.4a4.06,4.06,0,0,0-3.48,6.13l3.48,6,3.48-6A4,4,0,0,0,6.1,33.2Z"/></g></g></svg>